_______ Visit us at our Semi Public Bittorrent Community ________
  
http://p2pdl.com  _____________________________  http://p2pdl.com


The Incredible Burt Wonderstone 2013 BRRip 480p x264 - VYTO


Genre: Comedy
Plot: When a street magician's stunts begins to make their show look stale,
superstar magicians Burt Wonderstone and Anton Marvelton look to salvage on
their act - and their friendship - by staging their own daring stunt.   
Director: Don Scardino
Stars:  Steve Carell, Steve Buscemi, Mason Cook.
Rated: PG-13 for sexual content, dangerous stunts, a drug-related incident
and language.


Info: 
http://www.imdb.com/title/tt0790628/

Format                         : MPEG-4
File size                      : 317 MiB
Duration                       : 1h 40mn
Overall bit rate               : 442 Kbps
Source                         : 720p.BluRay.x264-SPARKS

Video
Format                         : AVC
Bit rate                       : 399 Kbps
Width                          : 720 pixels
Height                         : 304 pixels
Display aspect ratio           : 2.35:1
Frame rate mode                : Constant
Frame rate                     : 23.976 fps
Stream size                    : 286 MiB (90%)
Writing library                : x264 core 130 r2273
Audio
Format                         : AAC
Bit rate                       : 40.0 Kbps
Channel(s)                     : 2 channels
Channel positions              : Front: L R
Sampling rate                  : 48.0 KHz
Stream size                    : 28.7 MiB (9%)
Language                       : English

Subtitle                       : Yes(English)

----------------------------------------------------------------------------------------------------


Encoded using revolutionary 10bit encoding, which enables us to provide you more crispier 
and sharper images at small sizes, just make sure you follow our instructions without a fault.
Recommend to you to use latest version of VLC player. Install K-Lite Codec Pack or shark007 codecs
in case of any kind of problem in playback (For non-VLC Media Player users). Alternatively, install
Core AVC codecs, the fastest decoder that there is coupled with Community Center Codec Pack and play
on Windows Media Player Classic. Check sample to be sure.
Enjoy!

Encoder Notes:Looking For Early Access To Anything You Can Provide DVDScr, R5, DVDR, BluRay, Direct
Audio, Music Releases and Seedboxes. We require dedicated servers, so as to do more 
and fast releases of movies.
If You Got anything to offer please contact us at "contact@p2pdl.com".

Face book Fan Page:   
http://fbl.me/BC